<?xml version="1.0" encoding="utf-8"?>
<!-- Generator: Adobe Illustrator 19.2.1, SVG Export Plug-In . SVG Version: 6.00 Build 0)  -->
<svg version="1.1" id="Capa_1" xmlns="http://www.w3.org/2000/svg" xmlns:xlink="http://www.w3.org/1999/xlink" x="0px" y="0px"
	 viewBox="0 0 1280 800" style="enable-background:new 0 0 1280 800;" xml:space="preserve">
<style type="text/css">
	.st0{fill:#F2F1F1;}
</style>
<path class="st0" d="M1280,322.5c0,0.8,0,1.6,0,2.4V800H0V2.5c0,0,250.2-21.5,369.8,62.5c119.6,84,239.2,49.6,239.2,49.6
	c152.2-11.7,249.5,23.8,311.2,69.1c31.6,16.2,63.2,31.5,98,39.5c36.9,8.5,75.3,2.2,112.4-1.2c42.8-4,108.3-5.8,132.9,36.3
	C1274.6,277.3,1279.7,300.4,1280,322.5z"/>
<path class="st0" d="M1166,484v2.3C1166,485.5,1166.1,484.8,1166,484L1166,484z"/>
</svg>
