<svg id="Capa_1" data-name="Capa 1" xmlns="http://www.w3.org/2000/svg" viewBox="0 0 50.91 41.35"><title>icontoto</title><path d="M33.29,48.14a9.24,9.24,0,0,1-8.14-4.87A13.41,13.41,0,0,1,7.84,30.44,13.49,13.49,0,0,1,15,18.58a10.45,10.45,0,0,1-.07-1.24,10.56,10.56,0,0,1,18.38-7.08,10.46,10.46,0,0,1,7.82-3.47A10.55,10.55,0,0,1,51.6,18.58a13.41,13.41,0,0,1-6.26,25.27,13.32,13.32,0,0,1-3.91-.58A9.23,9.23,0,0,1,33.29,48.14Zm-7.36-6.72,0.28,0.63a7.73,7.73,0,0,0,14.14,0l0.28-.64,0.65,0.24a11.8,11.8,0,0,0,4,.71,11.92,11.92,0,0,0,5.12-22.68L50,19.44l0.1-.56a9.06,9.06,0,0,0-16.16-7l-0.59.78-0.59-.78a9.06,9.06,0,0,0-16.16,7l0.1,0.56-0.51.24a11.92,11.92,0,0,0,5.12,22.69,11.78,11.78,0,0,0,4-.71Z" transform="translate(-7.84 -6.79)"/><path d="M33.3,36.24c-3.81,0-6.71-4.83-7.33-8.62a4.91,4.91,0,0,1-3.81-2.77A2,2,0,0,1,23.95,22h3.13a7.46,7.46,0,0,1,12.44,0h3.13a2,2,0,0,1,1.79,2.82h0a4.91,4.91,0,0,1-3.81,2.77C40,31.41,37.1,36.24,33.3,36.24ZM23.95,23.53a0.49,0.49,0,0,0-.44.7,3.41,3.41,0,0,0,3.07,2h0.67l0.11,0.67c0.36,3.58,3.09,7.9,5.93,7.9s5.57-4.32,5.93-7.9l0.07-.67H40a3.43,3.43,0,0,0,3.12-2,0.49,0.49,0,0,0-.44-0.69h-4l-0.22-.37a6,6,0,0,0-10.32,0l-0.22.37h-4Z" transform="translate(-7.84 -6.79)"/></svg>